<?xml version="1.0" encoding="utf-8"?>
<!-- Generator: Adobe Illustrator 21.1.0, SVG Export Plug-In . SVG Version: 6.00 Build 0)  -->
<svg version="1.1" id="Шар_2" xmlns="http://www.w3.org/2000/svg" xmlns:xlink="http://www.w3.org/1999/xlink" x="0px" y="0px"
	 viewBox="0 0 70.5 70.5" style="enable-background:new 0 0 70.5 70.5;" xml:space="preserve">
<style type="text/css">
	.st0{fill:#F18D2B;}
	.st1{fill:#5479BC;}
	.st2{fill:#3E444E;}
</style>
<path class="st0" d="M35.2,0C15.8,0,0,15.8,0,35.2s15.8,35.2,35.2,35.2c19.5,0,35.2-15.8,35.2-35.2S54.7,0,35.2,0z M33,61.4
	c-16.1,0-29.2-13.1-29.2-29.2S16.9,3.1,33,3.1s29.2,13.1,29.2,29.2S49.1,61.4,33,61.4z"/>
<polygon class="st1" points="33.2,11 19.4,35.2 29.2,35.2 29.2,32 26.7,32.3 28.6,28.5 27.5,29.2 29.1,25.3 28.4,25.8 29.7,21.3 
	31.1,25.8 30.3,25.2 32,29.1 31,28.5 32.8,32.3 30.3,32 30.4,35.2 34.2,35.2 34.2,30.4 33.2,30.4 37,26.5 40.8,30.3 39.8,30.3 
	39.8,35.2 47.1,35.2 "/>
<g>
	<path class="st2" d="M16.8,41.4v-3.6h0.7v1.4H19v-1.4h0.7v3.6H19v-1.6h-1.4v1.6H16.8z"/>
	<path class="st2" d="M23.2,41.1c-0.3,0.3-0.7,0.4-1.2,0.4s-0.9-0.1-1.2-0.4c-0.4-0.3-0.5-0.8-0.5-1.5c0-0.7,0.2-1.2,0.5-1.5
		c0.3-0.3,0.7-0.4,1.2-0.4s0.9,0.1,1.2,0.4c0.4,0.3,0.5,0.8,0.5,1.5C23.7,40.2,23.6,40.7,23.2,41.1z M22.7,40.5
		c0.2-0.2,0.3-0.5,0.3-0.9c0-0.4-0.1-0.7-0.3-0.9c-0.2-0.2-0.4-0.3-0.7-0.3s-0.5,0.1-0.7,0.3S21,39.2,21,39.6s0.1,0.7,0.3,0.9
		s0.4,0.3,0.7,0.3S22.6,40.7,22.7,40.5z"/>
	<path class="st2" d="M24.9,40.3c0,0.2,0.1,0.3,0.1,0.4c0.1,0.1,0.3,0.2,0.6,0.2c0.2,0,0.3,0,0.4-0.1c0.2-0.1,0.3-0.2,0.3-0.4
		c0-0.1-0.1-0.2-0.2-0.3C26.1,40.1,26,40,25.7,40l-0.4-0.1c-0.4-0.1-0.6-0.2-0.8-0.3c-0.2-0.2-0.4-0.4-0.4-0.8
		c0-0.3,0.1-0.6,0.4-0.8s0.6-0.3,1-0.3c0.4,0,0.7,0.1,1,0.3c0.3,0.2,0.4,0.5,0.4,0.9h-0.7c0-0.2-0.1-0.4-0.3-0.5
		c-0.1-0.1-0.3-0.1-0.4-0.1c-0.2,0-0.4,0-0.5,0.1s-0.2,0.2-0.2,0.3c0,0.1,0.1,0.2,0.2,0.3c0.1,0,0.2,0.1,0.5,0.1l0.6,0.1
		c0.3,0.1,0.5,0.2,0.6,0.3c0.2,0.2,0.3,0.4,0.3,0.7c0,0.3-0.1,0.6-0.4,0.8c-0.3,0.2-0.6,0.3-1.1,0.3c-0.5,0-0.8-0.1-1.1-0.3
		c-0.3-0.2-0.4-0.5-0.4-0.9H24.9z"/>
	<path class="st2" d="M30.3,37.8v0.6h-1.1v3h-0.8v-3h-1.1v-0.6H30.3z"/>
	<path class="st2" d="M33.4,38.4h-1.9v0.8h1.7v0.6h-1.7v0.9h2v0.6h-2.7v-3.6h2.6V38.4z"/>
	<path class="st2" d="M34,37.8h0.8v3h1.8v0.6H34V37.8z"/>
	<path class="st2" d="M37.1,37.8h0.8v3h1.8v0.6h-2.5V37.8z"/>
	<path class="st2" d="M40.8,41.4h-0.7v-3.6h0.7V41.4z"/>
	<path class="st2" d="M41.5,37.8h0.8l1.4,2.5v-2.5h0.7v3.6h-0.8l-1.5-2.6v2.6h-0.7V37.8z"/>
	<path class="st2" d="M47.6,38.9c-0.1-0.2-0.2-0.4-0.4-0.5c-0.1-0.1-0.3-0.1-0.4-0.1c-0.3,0-0.5,0.1-0.7,0.3c-0.2,0.2-0.3,0.5-0.3,1
		c0,0.4,0.1,0.8,0.3,0.9s0.4,0.3,0.7,0.3c0.3,0,0.5-0.1,0.6-0.2c0.2-0.1,0.3-0.3,0.3-0.6h-0.8v-0.6h1.5v1.9h-0.5l-0.1-0.4
		c-0.1,0.2-0.3,0.3-0.4,0.4c-0.2,0.1-0.4,0.2-0.7,0.2c-0.5,0-0.9-0.2-1.2-0.5c-0.3-0.3-0.5-0.8-0.5-1.4c0-0.6,0.2-1,0.5-1.4
		c0.3-0.4,0.7-0.5,1.3-0.5c0.5,0,0.8,0.1,1.1,0.3c0.3,0.2,0.4,0.5,0.5,0.9H47.6z"/>
	<path class="st2" d="M14.1,46.4h-0.7v-3.6h0.7V46.4z"/>
	<path class="st2" d="M14.8,42.8h0.8l1.4,2.5v-2.5h0.7v3.6H17l-1.5-2.6v2.6h-0.7V42.8z"/>
	<path class="st2" d="M21,42.8v0.6H20v3h-0.8v-3h-1.1v-0.6H21z"/>
	<path class="st2" d="M24.1,43.4h-1.9v0.8H24v0.6h-1.7v0.9h2v0.6h-2.7v-3.6h2.6V43.4z"/>
	<path class="st2" d="M27.1,42.9c0.1,0.1,0.2,0.1,0.3,0.3c0.1,0.1,0.1,0.2,0.2,0.3s0.1,0.2,0.1,0.4c0,0.2,0,0.3-0.1,0.5
		c-0.1,0.2-0.2,0.3-0.4,0.4c0.2,0.1,0.3,0.2,0.4,0.3c0.1,0.1,0.1,0.3,0.1,0.6v0.2c0,0.2,0,0.3,0,0.3c0,0.1,0.1,0.2,0.1,0.2v0.1h-0.8
		c0-0.1,0-0.1,0-0.2c0-0.1,0-0.2,0-0.3l0-0.3c0-0.2,0-0.4-0.1-0.5C26.7,45,26.5,45,26.3,45h-0.7v1.4h-0.7v-3.6h1.7
		C26.8,42.8,27,42.8,27.1,42.9z M25.6,43.4v1h0.8c0.2,0,0.3,0,0.4-0.1c0.1-0.1,0.2-0.2,0.2-0.4c0-0.2-0.1-0.4-0.2-0.4
		c-0.1,0-0.2-0.1-0.3-0.1H25.6z"/>
	<path class="st2" d="M28.4,42.8h0.8l1.4,2.5v-2.5h0.7v3.6h-0.8l-1.5-2.6v2.6h-0.7V42.8z"/>
	<path class="st2" d="M33.1,42.8h0.9l1.3,3.6h-0.8l-0.2-0.7h-1.3l-0.2,0.7h-0.8L33.1,42.8z M33,45h0.9l-0.5-1.4L33,45z"/>
	<path class="st2" d="M37.9,42.8v0.6h-1.1v3h-0.8v-3H35v-0.6H37.9z"/>
	<path class="st2" d="M39,46.4h-0.7v-3.6H39V46.4z"/>
	<path class="st2" d="M42.5,46.1c-0.3,0.3-0.7,0.4-1.2,0.4s-0.9-0.1-1.2-0.4c-0.4-0.3-0.5-0.8-0.5-1.5c0-0.7,0.2-1.2,0.5-1.5
		c0.3-0.3,0.7-0.4,1.2-0.4s0.9,0.1,1.2,0.4c0.4,0.3,0.5,0.8,0.5,1.5C43,45.2,42.9,45.7,42.5,46.1z M42,45.5c0.2-0.2,0.3-0.5,0.3-0.9
		c0-0.4-0.1-0.7-0.3-0.9c-0.2-0.2-0.4-0.3-0.7-0.3s-0.5,0.1-0.7,0.3s-0.3,0.5-0.3,0.9s0.1,0.7,0.3,0.9s0.4,0.3,0.7,0.3
		S41.9,45.7,42,45.5z"/>
	<path class="st2" d="M43.6,42.8h0.8l1.4,2.5v-2.5h0.7v3.6h-0.8l-1.5-2.6v2.6h-0.7V42.8z"/>
	<path class="st2" d="M48.3,42.8h0.9l1.3,3.6h-0.8l-0.2-0.7H48l-0.2,0.7H47L48.3,42.8z M48.2,45h0.9l-0.5-1.4L48.2,45z"/>
	<path class="st2" d="M50.8,42.8h0.8v3h1.8v0.6h-2.5V42.8z"/>
</g>
</svg>
