<?xml version="1.0" encoding="utf-8"?>
<!-- Generator: Adobe Illustrator 21.1.0, SVG Export Plug-In . SVG Version: 6.00 Build 0)  -->
<svg version="1.1" id="Шар_2" xmlns="http://www.w3.org/2000/svg" xmlns:xlink="http://www.w3.org/1999/xlink" x="0px" y="0px"
	 viewBox="0 0 385 78.4" style="enable-background:new 0 0 385 78.4;" xml:space="preserve">
<style type="text/css">
	.st0{fill:#5479BC;}
	.st1{fill:#3B444F;}
</style>
<polygon class="st0" points="44.7,0 0,78.4 31.8,78.4 31.8,67.8 23.8,68.9 29.7,56.6 26.3,58.8 31.6,46.1 29.3,47.9 33.4,33.3 
	38,48 35.3,46 41,58.7 37.5,56.6 43.6,68.9 35.4,67.8 35.5,78.4 48.1,78.4 48.1,62.7 44.7,62.7 56.9,50.1 69.4,62.5 66,62.5 
	66,78.4 89.7,78.4 "/>
<rect x="54" y="66.8" class="st0" width="5.9" height="11.5"/>
<g>
	<path class="st1" d="M97.2,43.4c3.8,0,7.6,0,11.4,0.1c1.8,0,3.7,0.2,5.5,0.6c5.1,1.1,8.4,4.3,9.9,9.3c1.3,4.5,1.3,9,0.1,13.5
		c-1.6,6.2-6,9.9-12.4,10.3c-3.4,0.2-6.9,0.2-10.4,0.2c-1.4,0-2.7,0-4.1,0C97.2,66.2,97.2,54.8,97.2,43.4z M103.8,71.2
		c2.6-0.1,5.1,0,7.6-0.4c3.4-0.5,5.6-2.5,6.3-5.9c0.7-2.9,0.7-5.9,0-8.9c-0.6-2.6-2.2-4.6-4.8-5.5c-3-1-6-0.6-9.1-0.6
		C103.8,57,103.8,64,103.8,71.2z"/>
	<path class="st1" d="M385,77.5c-7.8,0-15.5,0-23.3,0c-0.4,0-0.9,0-1.4,0c0-11.3,0-22.6,0-33.9c2.1,0,4.2,0,6.5,0
		c0,9.1,0,18.3,0,27.6c6.2,0,12.2,0,18.2,0C385,73.3,385,75.4,385,77.5z"/>
	<path class="st1" d="M169.6,56.3c0,7.2,0,14.1,0,21.1c-2.2,0-4.3,0-6.5,0c0-11.2,0-22.5,0-33.9c1.4,0,2.8,0,4.2,0
		c0.3,0,0.6,0.4,0.8,0.7c5.2,6.5,10.4,12.9,15.6,19.4c0.3,0.3,0.5,0.6,0.9,1.1c0-7.2,0-14.1,0-21.1c2.2,0,4.4,0,6.6,0
		c0,11.3,0,22.5,0,33.9c-1.4,0-2.9,0-4.3,0c-0.3,0-0.6-0.4-0.8-0.7c-5.2-6.5-10.4-13-15.6-19.5C170.2,57,170,56.8,169.6,56.3z"/>
	<path class="st1" d="M263.6,61.3c-0.1,2.1-0.5,4.9-1.2,7.5c-1.5,5.2-5,8.3-10.3,9.2c-2.8,0.5-5.6,0.5-8.4-0.1
		c-4.9-1.1-8.2-4.1-9.7-8.9c-1.7-5.7-1.7-11.4,0-17.1c1.7-5.5,5.7-8.4,11.3-9.1c3.1-0.4,6.1-0.3,9,0.7c5.3,1.8,7.8,6,8.7,11.2
		C263.3,56.7,263.6,58.6,263.6,61.3z M239.3,59.9c-0.1,1.9,0.2,3.2,0.4,4.5c0.5,4.2,2.6,6.6,6.4,7.2c1,0.2,2.1,0.2,3.1,0.1
		c3.7-0.1,6.2-2.1,7.1-5.7c0.9-3.6,0.9-7.3,0.1-10.9c-0.8-3.3-2.8-5.5-6.3-5.9c-1.2-0.2-2.4-0.2-3.6,0c-3.2,0.4-5.5,2.1-6.3,5.3
		C239.6,56.5,239.3,58.5,239.3,59.9z"/>
	<path class="st1" d="M351.4,56.9c0,2.2,0,4.2,0,6.4c-5.3,0-10.6,0-16,0c0,2.6,0,5.1,0,7.7c6,0,12,0,18.1,0c0,2.2,0,4.2,0,6.4
		c-8.2,0-16.4,0-24.7,0c0-11.3,0-22.6,0-33.9c8.2,0,16.4,0,24.7,0c0,2.1,0,4.1,0,6.4c-0.4,0-0.7,0-1.1,0c-5.3,0-10.6,0-15.9,0
		c-0.9,0-1.2,0.3-1.2,1.2c0.1,1.9,0,3.8,0,5.8C340.8,56.9,346.1,56.9,351.4,56.9z"/>
	<path class="st1" d="M220.6,63.4c-5.1,0-10,0-15.1,0c0,4.7,0,9.4,0,14.1c-2.3,0-4.4,0-6.6,0c0-11.3,0-22.6,0-33.9
		c2.2,0,4.3,0,6.5,0c0,4.4,0,8.8,0,13.3c5.1,0,10,0,15.1,0c0-4.4,0-8.8,0-13.3c2.2,0,4.3,0,6.5,0c0,11.3,0,22.5,0,33.9
		c-2.1,0-4.2,0-6.4,0C220.6,72.8,220.6,68.1,220.6,63.4z"/>
	<path class="st1" d="M292.8,50.5c-2.4-0.4-4.7-1-7-1.1c-2.6-0.2-5.2-0.1-7.8,0.1c-1.4,0.1-2.8,0.8-3.4,2.3c-0.8,2-0.1,3.7,2,4.2
		c1.8,0.5,3.8,0.6,5.6,0.9c2.4,0.5,4.8,0.8,7.1,1.6c3.2,1.1,4.7,3.6,5,6.9c0.3,4.2-0.6,7.9-4.4,10.4c-2,1.3-4.3,1.9-6.6,2.2
		c-4.6,0.5-9.1-0.1-13.6-1.1c-0.9-0.2-1.3-0.6-1.3-1.6c0.1-1.7,0-3.4,0-5c2.6,0.4,5.2,1,7.8,1.2c2.4,0.2,4.9,0.2,7.3-0.1
		c3-0.4,4.4-2.2,4.3-4.7c-0.1-1.4-0.8-2.5-2.1-2.8c-2.1-0.5-4.2-0.7-6.3-1.1c-2.4-0.5-4.9-1-7.2-1.8c-2.3-0.8-3.6-2.7-4-5.2
		c-0.4-2.7-0.3-5.4,1.1-7.9c1.7-3,4.5-4.4,7.7-5c4.9-0.9,9.8-0.6,14.6,0.8c1,0.3,1.4,0.7,1.4,1.8C292.7,47.3,292.8,48.9,292.8,50.5z
		"/>
	<path class="st1" d="M133.2,77.5c-2.4,0-4.7,0-7.2,0c0.3-0.7,0.5-1.3,0.7-1.9c4.2-10.4,8.4-20.9,12.5-31.4c0.2-0.4,0.4-1.1,0.4-1.1
		l5.1,0c0,0,0.1,0.4,0.2,0.7c4.3,10.9,8.7,21.8,13,32.7c0.1,0.3,0.2,0.5,0.3,0.9c-2.4,0-4.7,0-7.1,0c-0.8-2.1-2.9-7.6-2.9-7.6
		l-12.6,0C135.9,69.9,134,75.3,133.2,77.5z M138.2,64c2.7,0,5.3,0,8.1,0c-1.3-3.6-2.6-7.1-3.9-10.6c-0.1,0-0.2,0-0.2,0
		C140.8,56.9,139.5,60.4,138.2,64z"/>
	<path class="st1" d="M313.7,77.4c-2.3,0-4.5,0-6.9,0c0-9.2,0-18.3,0-27.5c-3.4,0-6.7,0-10.1,0c0-2.2,0-4.2,0-6.4c9,0,18,0,27.1,0
		c0,2.1,0,4.1,0,6.3c-3.3,0-6.7,0-10.1,0C313.7,59.1,313.7,68.3,313.7,77.4z"/>
</g>
</svg>
